<svg fill="none" height="76" viewBox="0 0 85 76" width="85" xmlns="http://www.w3.org/2000/svg">
<g clip-path="url(#clip0_1267_3280)">
<path d="M4.14035 72.8968L1.71178 64.9548C1.50324 63.687 0.901776 62.5257 -0.000366211 61.6488L-0.000366211 61.5854H3.01106C2.9861 62.1127 3.06888 62.6395 3.25392 63.1308L6.32606 73.1375L8.75463 64.9548C9.14321 63.6881 9.55606 62.2441 8.42678 61.6361V61.5854H11.3411C11.259 62.3269 11.3637 63.0778 11.6446 63.7641L14.5103 73.0741L16.8296 65.2081C17.2061 63.9415 17.8861 62.2315 16.2832 61.6615V61.5854H19.4282L15.0932 76.3801C13.1989 75.0248 13.0532 75.1135 12.3732 72.9221L10.1025 65.5121L6.88463 76.3801C5.01463 74.9615 4.85678 75.1135 4.14035 72.8968Z" fill="white"></path>
<path d="M23.2651 61.2305V66.9178C23.6472 66.4766 24.1165 66.127 24.6405 65.893C25.1646 65.659 25.731 65.5463 26.3008 65.5625C29.1544 65.5625 29.8344 67.3485 29.8344 69.4385V73.3525C29.8344 74.3405 29.7008 75.1385 30.6115 75.6705V75.7338H27.2479V75.6705C28.1465 75.1258 28.0129 74.4038 28.0129 73.3525V70.0845C28.0129 68.3365 27.4786 66.9811 25.6936 66.9811C23.9086 66.9811 23.2651 68.0325 23.2651 69.9578V73.3525C23.2651 74.3405 23.1436 75.1385 24.0544 75.6705V75.7338H20.6422V75.6705C21.5529 75.1258 21.4315 74.4038 21.4315 73.3525V63.9665C21.4315 62.9785 21.5529 62.1805 20.6422 61.6485V61.5851H21.9901C22.2145 61.6238 22.4443 61.6122 22.6642 61.551C22.884 61.4899 23.0889 61.3806 23.2651 61.2305Z" fill="white"></path>
<path d="M32.5321 63.131C32.551 62.7793 32.7016 62.4494 32.9515 62.2125C33.2013 61.9755 33.5304 61.8505 33.8679 61.8643C34.0326 61.8641 34.1956 61.8988 34.347 61.9664C34.4984 62.034 34.6351 62.133 34.7487 62.2574C34.8623 62.3818 34.9504 62.529 35.0077 62.6901C35.0651 62.8512 35.0904 63.0227 35.0821 63.1943C35.0888 63.5407 34.9657 63.8762 34.7389 64.1293C34.5121 64.3824 34.1996 64.5332 33.8679 64.5497C33.6899 64.5514 33.5135 64.5158 33.349 64.4448C33.1846 64.3738 33.0356 64.2689 32.9109 64.1365C32.7862 64.0041 32.6884 63.8468 32.6233 63.674C32.5583 63.5012 32.5272 63.3165 32.5321 63.131ZM34.8271 65.4997V73.353C34.8271 74.341 34.7057 75.139 35.6164 75.671V75.7343H32.2164V75.671C33.1271 75.1263 33.0057 74.4043 33.0057 73.353V68.2103C33.0057 67.2223 33.1271 66.4497 32.2164 65.905H33.4307C33.9242 65.952 34.417 65.8077 34.815 65.4997H34.8271Z" fill="white"></path>
<path d="M41.991 74.6068C42.2763 74.5863 42.5558 74.5134 42.8167 74.3915L41.7239 75.9115C41.5121 75.9839 41.291 76.0224 41.0682 76.0255C37.8746 76.0255 38.166 72.5802 38.166 71.7442V67.2602H36.7574V66.4875C38.7003 66.1455 39.186 64.6382 39.186 62.6875H40.0724V65.8668H42.0153C42.2804 65.8921 42.5474 65.8486 42.7925 65.7402H42.8532V67.7035H42.756C42.5593 67.5183 42.3249 67.3822 42.0703 67.3054C41.8158 67.2286 41.5478 67.2131 41.2867 67.2602H40.0724V71.5668C40.0724 72.3902 39.781 74.6068 41.991 74.6068Z" fill="white"></path>
<path d="M48.7185 66.9814C48.0919 66.9471 47.4751 67.1539 46.985 67.5624C46.4948 67.971 46.1654 68.553 46.0592 69.198H51.3899C51.3137 68.5362 50.9906 67.9325 50.4905 67.5175C49.9905 67.1026 49.3538 66.9099 48.7185 66.9814ZM50.1028 74.5814C51.2992 74.6016 52.4686 74.2098 53.4299 73.4667L52.3978 75.4934C51.4901 75.8684 50.5205 76.0534 49.5442 76.038C46.1442 76 43.7157 73.72 43.7157 70.718C43.7009 70.0167 43.8259 69.3198 44.0828 68.6714C44.3396 68.0231 44.7228 67.4375 45.2079 66.9517C45.693 66.4659 46.2696 66.0904 46.9011 65.8491C47.5326 65.6079 48.2052 65.506 48.8764 65.55C49.4976 65.5187 50.1183 65.6241 50.6979 65.8594C51.2775 66.0947 51.8032 66.4547 52.2407 66.9158C52.6782 67.377 53.0178 67.9291 53.2373 68.5361C53.4569 69.1432 53.5515 69.7917 53.5149 70.4394H45.9742C45.9542 71.0042 46.0483 71.5671 46.2505 72.0916C46.4527 72.616 46.7584 73.0901 47.1478 73.4832C47.5372 73.8763 48.0016 74.1794 48.5107 74.373C49.0198 74.5666 49.5622 74.6462 50.1028 74.6067V74.5814Z" fill="white"></path>
<path d="M56.2212 65.5625H56.2819C56.3147 65.9463 56.4049 66.3224 56.549 66.6772L58.9776 73.2132L60.8597 68.1465C61.1512 67.3738 61.6612 66.3352 60.6776 65.8918H63.3733V66.2212C63.435 66.5608 63.5328 66.8921 63.6647 67.2092L65.7897 73.2765L67.7083 68.2098C67.9755 67.4752 68.534 66.4872 67.4169 65.9552H70.1855L66.0569 76.1265C65.536 75.9157 65.073 75.5743 64.7087 75.1325C64.3444 74.6906 64.0901 74.1619 63.9683 73.5932L62.1955 68.6405L59.3662 76.1265C58.8233 75.9299 58.3358 75.5954 57.9479 75.1531C57.5599 74.7108 57.2837 74.1747 57.144 73.5932L54.8855 67.5258C54.7159 66.8678 54.3288 66.2935 53.7926 65.9045H54.3269C54.977 65.9953 55.6382 65.876 56.2212 65.5625Z" fill="white"></path>
<path d="M71.7388 63.1306C71.7576 62.7766 71.9099 62.4447 72.1624 62.2074C72.4149 61.9701 72.7471 61.8466 73.0866 61.8639C73.2513 61.8637 73.4143 61.8984 73.5658 61.966C73.7172 62.0336 73.8539 62.1326 73.9675 62.257C74.081 62.3814 74.1692 62.5286 74.2265 62.6897C74.2838 62.8508 74.3091 63.0223 74.3009 63.1939C74.3076 63.5403 74.1845 63.8757 73.9577 64.1289C73.7309 64.382 73.4184 64.5328 73.0866 64.5492C72.9081 64.551 72.7311 64.5153 72.566 64.4445C72.401 64.3737 72.2512 64.269 72.1255 64.1368C71.9999 64.0045 71.9009 63.8473 71.8345 63.6745C71.7681 63.5017 71.7355 63.3167 71.7388 63.1306ZM74.0702 65.4992V73.3526C74.0702 74.3406 73.9488 75.1386 74.8473 75.6706V75.7339H71.4352V75.6706C72.3338 75.1259 72.2123 74.4039 72.2123 73.3526V68.2099C72.2123 67.2219 72.3338 66.4492 71.4352 65.9046H72.6495C73.1553 65.9638 73.6637 65.8188 74.0702 65.4992Z" fill="white"></path>
<path d="M79.0982 61.2305H79.1589V73.3398C79.1589 74.3278 79.0132 75.1258 79.9239 75.6578V75.7211H76.4996V75.6705C77.3861 75.1258 77.2646 74.4038 77.2646 73.3525V63.9665C77.2646 62.9785 77.3861 62.1805 76.4996 61.6485V61.5851H77.7139C77.9555 61.6349 78.2046 61.629 78.4437 61.5677C78.6828 61.5064 78.9062 61.3913 79.0982 61.2305Z" fill="white"></path>
<path d="M84.1755 61.2305H84.2362V73.3398C84.2362 74.3278 84.0905 75.1258 84.989 75.6578V75.7211H81.6012V75.6705C82.4876 75.1258 82.3662 74.4038 82.3662 73.3525V63.9665C82.3662 62.9785 82.4876 62.1805 81.6012 61.6485V61.5851H82.8155C83.0533 61.6311 83.2978 61.6232 83.5324 61.5621C83.7671 61.5009 83.9864 61.3878 84.1755 61.2305Z" fill="white"></path>
<path d="M8.57385 8.18283L26.2417 54.9102H28.3424L9.72742 5.6875H9.691L8.57385 8.18283Z" fill="white"></path>
<path d="M5.85315 14.2629L21.226 54.9102H23.3267L7.00672 11.7676H6.97029L5.85315 14.2629Z" fill="white"></path>
<path d="M78.0299 11.7676H77.9935L61.6735 54.9102H63.7742L79.147 14.2629L78.0299 11.7676Z" fill="white"></path>
<path d="M11.2926 2.11545L31.2676 54.9101H33.3562L12.4462 -0.379883H12.4097L11.2926 2.11545Z" fill="white"></path>
<path d="M75.3109 5.6875H75.2744L57.9466 51.4775L57.5216 52.6175L57.0966 51.4775L40.0116 6.3335H39.9751L38.943 9.05683L56.2951 54.9102H58.7601L76.428 8.18283L75.3109 5.6875Z" fill="white"></path>
<path d="M37.5096 12.958H37.4732L36.441 15.6813L51.2796 54.91H53.3803L37.5096 12.958Z" fill="white"></path>
<path d="M40.0101 32.8447H39.9737L33.9508 48.7667L34.9829 51.49H35.0194L41.0422 35.5681L40.0101 32.8447Z" fill="white"></path>
<path d="M37.5101 26.2202H37.4737L31.4508 42.1296L32.4708 44.8529H32.5072L38.5301 28.9435L37.5101 26.2202Z" fill="white"></path>
<path d="M34.9944 19.5825H34.958L28.9352 35.5045L29.9673 38.2279H30.0037L36.0266 22.3185L34.9944 19.5825Z" fill="white"></path>
<path d="M72.5526 -0.379883L57.9447 38.2281L57.5197 39.3555L57.0947 38.2281L42.5233 -0.291216H42.4869L41.4547 2.43212L57.5076 44.8528H57.544L73.7183 2.11545L72.6011 -0.379883H72.5526Z" fill="white"></path>
</g>
<defs>
<clipPath id="clip0_1267_3280">
<rect fill="white" height="76" transform="translate(-0.000366211)" width="85"></rect>
</clipPath>
</defs>
</svg>